<?xml version="1.0" encoding="UTF-8"?>
<svg version="1.1" xmlns="http://www.w3.org/2000/svg" width="1254" height="1254">
<path d="M0 0 C413.82 0 827.64 0 1254 0 C1254 413.82 1254 827.64 1254 1254 C840.18 1254 426.36 1254 0 1254 C0 840.18 0 426.36 0 0 Z " fill="#FDFDFD" transform="translate(0,0)"/>
<path d="M0 0 C1.19434158 -0.0071553 2.38868317 -0.01431061 3.61921692 -0.02168274 C4.9314473 -0.02437164 6.24367767 -0.02706055 7.59567261 -0.02983093 C8.99036325 -0.03609693 10.38505223 -0.04274386 11.77973938 -0.04974365 C16.36274048 -0.0707758 20.94574186 -0.08114741 25.52877808 -0.09111023 C27.10824475 -0.09515855 28.68771126 -0.09927549 30.26717758 -0.10346031 C37.69049448 -0.12251263 45.11380145 -0.13674179 52.5371381 -0.14507228 C61.09541161 -0.15483569 69.65342586 -0.18113142 78.21160805 -0.22157317 C84.83256339 -0.25178233 91.45344464 -0.26654582 98.07446754 -0.26985329 C102.02578669 -0.27219894 105.9768289 -0.28109525 109.92807388 -0.30631447 C113.64967365 -0.3296836 117.3708159 -0.33379334 121.09247017 -0.32355309 C123.09820106 -0.32282568 125.10390918 -0.34185604 127.10954285 -0.36161804 C139.23877752 -0.29208454 147.37834139 3.63422528 156.11471558 11.88935852 C162.89133008 19.05235893 166.5361473 28.14965426 170.27096558 37.14717102 C171.21023131 39.283307 172.16040922 41.41440829 173.11080933 43.54560852 C174.40451098 46.44663647 175.69467319 49.34922136 176.98410034 52.25215149 C177.96665201 54.46256652 178.95034741 56.67245892 179.93478394 58.8820343 C181.54734745 62.50251371 183.15542754 66.12496552 184.76168823 69.74824524 C185.43321232 71.26120493 186.10605915 72.77357823 186.78024292 74.28535461 C190.25979668 82.09019878 193.63041804 89.85415351 196.45651245 97.92500305 C197.50768995 100.79305389 198.83132231 103.45566405 200.27096558 106.14717102 C202.64348617 110.74986097 204.47231137 115.32455645 206.15353394 120.21382141 C207.2902045 123.19767478 208.62634344 125.96144727 210.08737183 128.79951477 C212.98613683 134.52775509 215.6465116 140.3243553 218.20846558 146.20967102 C218.67244751 147.2692804 219.13642944 148.32888977 219.61447144 149.42060852 C223.88751501 159.20673808 228.07918342 169.0276049 232.27331543 178.84773254 C238.3265349 193.0153126 244.50710553 207.12525205 250.71408081 221.22602844 C255.14296868 231.28911686 259.54060822 241.36455778 263.89596558 251.45967102 C268.47033167 262.05486289 273.13175206 272.60807486 277.83346558 283.14717102 C284.26792599 297.57079467 290.60291515 312.03630873 296.89596558 326.52217102 C297.3215274 327.50153625 297.74708923 328.48090149 298.18554688 329.48994446 C300.18062446 334.08271737 302.17181345 338.67707474 304.15475464 343.27510071 C305.4837179 346.35125138 306.83708115 349.41371399 308.22311401 352.46455383 C308.51302216 353.11187469 308.8029303 353.75919556 309.10162354 354.4261322 C309.85522258 356.10569318 310.61995645 357.78024631 311.38571167 359.45429993 C312.33589936 362.34469437 312.50015582 363.40585028 311.27096558 366.14717102 C306.75480367 372.40605984 300.78996765 377.78079681 295.33346558 383.20967102 C294.57356323 383.97344055 293.81366089 384.73721008 293.0307312 385.52412415 C288.83617624 389.71151505 284.55587893 393.73228775 280.06417847 397.59907532 C277.64591505 399.68678238 275.30500088 401.85445411 272.95846558 404.02217102 C267.5543992 408.93898551 261.99577971 413.61002229 256.27096558 418.14717102 C255.62772339 418.65763977 254.9844812 419.16810852 254.32174683 419.69404602 C238.47716329 432.22913244 222.24214933 444.17809308 205.27096558 455.14717102 C204.56423706 455.60414368 203.85750854 456.06111633 203.12936401 456.53193665 C193.5988734 462.66965566 183.94965741 468.59988465 174.20846558 474.39717102 C173.24996704 474.97056213 172.29146851 475.54395325 171.30392456 476.13471985 C169.97083252 476.92205505 169.97083252 476.92205505 168.61080933 477.72529602 C167.42539551 478.42767395 167.42539551 478.42767395 166.21603394 479.14424133 C164.27096558 480.14717102 164.27096558 480.14717102 162.27096558 480.14717102 C161.33222866 478.12691197 160.39503755 476.10593462 159.45846558 474.08467102 C158.93639526 472.95931946 158.41432495 471.8339679 157.87643433 470.67451477 C155.2000853 464.79436106 152.74680815 458.85155728 150.39596558 452.83467102 C148.35776639 447.66785194 146.11317699 442.72058682 143.54684448 437.79072571 C142.2275915 435.05730219 141.16659702 432.31166406 140.11862183 429.46357727 C137.1718396 421.71706658 133.78923895 414.18963924 130.37161255 406.6414032 C128.47294785 402.44655765 126.58670823 398.24613532 124.70065308 394.04560852 C124.32246429 393.20368454 123.94427551 392.36176056 123.55462646 391.49432373 C120.10475099 383.80173121 116.73342284 376.07658977 113.39596558 368.33467102 C113.13143585 367.72125854 112.86690613 367.10784607 112.59436035 366.47584534 C112.33142181 365.86609863 112.06848328 365.25635193 111.7975769 364.62812805 C108.55064932 357.09882935 105.2721529 349.58481425 101.95846558 342.08467102 C97.30570236 331.54309173 92.71888951 320.97355383 88.14596558 310.39717102 C87.8007486 309.59926147 87.45553162 308.80135193 87.09985352 307.97926331 C83.81667367 300.38974571 80.53829739 292.79873021 77.31784058 285.18232727 C76.8990564 284.1939386 76.48027222 283.20554993 76.04879761 282.18721008 C75.30579155 280.4292974 74.56686637 278.66965151 73.83297729 276.90791321 C72.08282114 272.68999581 72.08282114 272.68999581 69.27096558 269.14717102 C66.31327381 268.64706578 66.31327381 268.64706578 63.27096558 269.14717102 C60.57066652 272.07934452 59.14524019 275.40622812 57.59127808 279.04560852 C57.08137329 280.23170715 56.57146851 281.41780579 56.04611206 282.6398468 C55.4960075 283.93393119 54.94596026 285.22803993 54.39596558 286.52217102 C53.81848511 287.86990595 53.24043159 289.21739547 52.66183472 290.56465149 C51.45953845 293.36531791 50.25972026 296.16702715 49.06149292 298.96943665 C47.368613 302.92456046 45.66096179 306.87312872 43.94674683 310.81904602 C43.67858658 311.43634079 43.41042633 312.05363556 43.13414001 312.68963623 C42.59535736 313.92964352 42.05652393 315.16962876 41.51763916 316.40959167 C37.6541984 325.30257226 33.8137023 334.20497618 30.00778198 343.12275696 C23.77351863 357.72850114 17.40258891 372.27180122 11.00827026 386.80805969 C6.25441942 397.61700388 1.52364119 408.43543747 -3.16653442 419.27217102 C-3.43384369 419.88969238 -3.70115295 420.50721375 -3.9765625 421.14344788 C-6.14669632 426.15825435 -8.31495179 431.17381564 -10.46340942 436.19795227 C-11.4705026 438.54472803 -12.49422571 440.88072425 -13.54153442 443.20967102 C-17.57666584 452.28485163 -21.59416733 461.32740507 -24.77200317 470.74482727 C-25.72903442 473.14717102 -25.72903442 473.14717102 -27.15481567 475.51826477 C-31.25778954 482.37012932 -33.7783984 490.25700917 -36.6802063 497.6764679 C-38.53622099 502.36478245 -40.54800495 506.87853256 -42.85183716 511.36274719 C-44.46086217 514.63587934 -45.53868917 518.08481665 -46.70169067 521.53388977 C-47.72903442 524.14717102 -47.72903442 524.14717102 -49.10012817 526.35420227 C-50.97746996 529.57314563 -52.25351355 532.85312078 -53.60452271 536.3195343 C-55.65194055 541.46786115 -57.92490108 546.51864133 -60.16653442 551.58467102 C-60.63124146 552.63976868 -61.09594849 553.69486633 -61.57473755 554.78193665 C-62.50111759 556.881473 -63.43637819 558.97711553 -64.38088989 561.06855774 C-65.27716642 563.11528847 -66.1207746 565.18592269 -66.90921021 567.27656555 C-67.48711304 568.7458551 -67.48711304 568.7458551 -68.07669067 570.24482727 C-68.3977478 571.11760315 -68.71880493 571.99037903 -69.04959106 572.88960266 C-71.549601 576.25020622 -74.86318492 577.0101783 -78.72903442 578.14717102 C-79.41725784 578.36040512 -80.10548126 578.57363922 -80.81455994 578.79333496 C-83.01610267 579.46034088 -85.22541501 580.09118717 -87.43997192 580.71357727 C-88.26951385 580.94875061 -89.09905579 581.18392395 -89.95373535 581.42622375 C-92.669016 582.19278183 -95.38620728 582.95219362 -98.10403442 583.70967102 C-99.50715881 584.10193375 -99.50715881 584.10193375 -100.93862915 584.50212097 C-115.38434458 588.52819933 -129.88696495 592.2525426 -144.47903442 595.70967102 C-145.34405579 595.91504486 -146.20907715 596.1204187 -147.10031128 596.33201599 C-156.54642368 598.56592898 -165.99722327 600.66444538 -175.53860474 602.45161438 C-178.72292257 603.0851245 -178.72292257 603.0851245 -181.697052 604.14350891 C-185.08393553 605.26465217 -188.40148415 605.92185646 -191.91262817 606.55342102 C-192.60239243 606.67882263 -193.29215668 606.80422424 -194.00282288 606.9334259 C-195.48163188 607.20214079 -196.96075286 607.46914354 -198.44015503 607.73457336 C-200.73195937 608.14769828 -203.02193323 608.56977768 -205.31155396 608.99482727 C-223.53705126 612.37568559 -241.72036646 615.65414079 -260.13626099 617.82344055 C-265.71212707 618.51963626 -271.26792905 619.37842988 -276.82131958 620.23408508 C-281.51850625 620.93184534 -285.97998686 621.28121672 -290.72903442 621.14717102 C-288.64645646 614.42878067 -286.04330915 608.06068962 -283.16653442 601.64717102 C-282.19213084 599.45335831 -281.21821005 597.25933113 -280.24465942 595.06513977 C-279.84454903 594.16549751 -279.84454903 594.16549751 -279.43635559 593.24768066 C-275.80098911 585.07122263 -272.20818236 576.87602018 -268.61187744 568.68232727 C-267.44208962 566.0178786 -266.27109769 563.35396194 -265.09988403 560.69013977 C-260.04165052 549.17957273 -255.00797707 537.66101061 -250.19387817 526.04560852 C-247.64860881 519.91460837 -244.97972898 513.84160292 -242.29153442 507.77217102 C-239.27001602 500.93514016 -236.26386552 494.09501161 -233.35403442 487.20967102 C-231.77212842 483.48089258 -230.10349799 479.86194558 -228.22903442 476.27217102 C-225.67860325 471.3271228 -223.797219 466.18540168 -221.95950317 460.94258118 C-220.57626297 457.08007502 -218.91336316 453.74889161 -216.81130981 450.20869446 C-215.50919192 447.72841394 -214.55241207 445.20588568 -213.57278442 442.58076477 C-209.84647857 432.62738149 -205.489008 422.94339433 -201.22903442 413.20967102 C-200.31962698 411.12590292 -199.41053195 409.04199843 -198.5017395 406.95796204 C-196.71088595 402.85162387 -194.91891687 398.74577584 -193.12600708 394.64033508 C-190.20994289 387.96068418 -187.31050225 381.27392578 -184.41653442 374.58467102 C-180.36545606 365.22649718 -176.30725217 355.87144585 -172.24465942 346.51826477 C-159.42364803 317.02042482 -159.42364803 317.02042482 -146.72073364 287.47163391 C-143.43786574 279.78919948 -140.12033267 272.12230553 -136.79153442 264.45967102 C-132.79071215 255.24972032 -128.81710658 246.0285751 -124.86965942 236.79560852 C-124.43988297 235.79046707 -124.01010651 234.78532562 -123.56730652 233.74972534 C-123.13026901 232.72757431 -122.69323151 231.70542328 -122.24295044 230.65229797 C-114.69131886 212.99068501 -107.09992481 195.34956231 -99.35403442 177.77217102 C-93.85697374 165.29720699 -88.40234849 152.80635066 -83.04153442 140.27217102 C-82.74025635 139.56797028 -82.43897827 138.86376953 -82.12857056 138.13822937 C-78.96974403 130.75242497 -75.82046179 123.36256695 -72.67408752 115.97145081 C-71.31351736 112.77708089 -69.95057917 109.58372433 -68.58728027 106.39051819 C-67.63512768 104.157589 -66.68652036 101.92317755 -65.73806763 99.68867493 C-62.93707015 93.11472802 -60.03599449 86.64052882 -56.77493286 80.27827454 C-55.23352427 77.13752859 -54.08342977 73.94691133 -52.91653442 70.64717102 C-50.1643637 63.05055744 -46.93947749 55.71507859 -43.61575317 48.35420227 C-42.00704439 44.7893678 -40.4719547 41.1998349 -38.97903442 37.58467102 C-38.39702271 36.18088196 -38.39702271 36.18088196 -37.80325317 34.74873352 C-37.11370455 33.07877214 -36.42842946 31.4070361 -35.74856567 29.73310852 C-30.22566078 16.61339158 -22.04539275 6.65820386 -8.72903442 1.14717102 C-5.56630201 0.09292688 -3.32207757 0.0136498 0 0 Z " fill="#0179FD" transform="translate(558.7290344238281,161.8528289794922)"/>
<path d="M0 0 C-0.47253071 21.28734723 -1.36624122 42.47927742 -2.96753693 63.7161026 C-3.12878503 65.86289231 -3.28722207 68.00987454 -3.44500732 70.15692139 C-5.26266009 94.83418687 -7.3841048 119.48287997 -9.625 144.125 C-9.73508266 145.33854345 -9.73508266 145.33854345 -9.84738922 146.57660294 C-11.67824725 166.74470104 -13.66263325 186.88334005 -16 207 C-16.66 207 -17.32 207 -18 207 C-18.47308594 206.15179687 -18.94617187 205.30359375 -19.43359375 204.4296875 C-23.92704639 196.43479829 -28.7093114 188.67794441 -33.71240234 180.99121094 C-36.1910183 177.15814463 -38.62535429 173.29701371 -41.0625 169.4375 C-41.57184082 168.6323999 -42.08118164 167.8272998 -42.60595703 166.99780273 C-44.92348093 163.32658496 -47.2251272 159.64814463 -49.47265625 155.93359375 C-49.84060303 155.32652588 -50.2085498 154.71945801 -50.58764648 154.09399414 C-51.55554012 152.49010168 -52.51632997 150.88192828 -53.4765625 149.2734375 C-54.79950138 146.89438464 -54.79950138 146.89438464 -57 146 C-57.226875 146.63679687 -57.45375 147.27359375 -57.6875 147.9296875 C-64.99786397 165.0307175 -76.4341746 180.5349924 -86.86376953 195.85888672 C-88.79139764 198.69327109 -90.70821116 201.53456103 -92.62109375 204.37890625 C-108.84913746 228.42470011 -127.09500612 250.94549322 -146.625 272.38964844 C-148.16769467 274.08521705 -149.70481844 275.78587718 -151.23535156 277.49243164 C-158.86946866 285.93844781 -166.8561593 294.00922398 -174.91674805 302.04711914 C-177.19761977 304.32259584 -179.47304975 306.60341717 -181.74804688 308.88476562 C-183.22103341 310.35709181 -184.69432986 311.829108 -186.16796875 313.30078125 C-186.83587936 313.97071609 -187.50378998 314.64065094 -188.19194031 315.33088684 C-192.63424961 319.75147268 -197.24163127 323.9229264 -202 328 C-203.15256166 328.99714402 -204.30494051 329.99449943 -205.45703125 330.9921875 C-230.69285258 352.70862681 -257.07740451 372.85788687 -285 391 C-285.8962207 391.58281738 -286.79244141 392.16563477 -287.71582031 392.76611328 C-308.29270165 406.10243548 -329.35077042 418.48802307 -351 430 C-352.03753418 430.55300781 -353.07506836 431.10601563 -354.14404297 431.67578125 C-371.16297289 440.71445766 -388.41845592 449.11297468 -406 457 C-407.16805176 457.52416504 -408.33610352 458.04833008 -409.53955078 458.58837891 C-451.81990664 477.45120818 -495.37205918 493.08777565 -539 508.5 C-599.20727856 526.99488448 -599.20727856 526.99488448 -651 561 C-651.86625 561.845625 -652.7325 562.69125 -653.625 563.5625 C-654.40875 564.366875 -655.1925 565.17125 -656 566 C-656.54527344 566.48855469 -657.09054687 566.97710938 -657.65234375 567.48046875 C-668.37878728 577.41723546 -675.89495519 590.51172613 -683.25 603 C-683.80381348 603.93521484 -684.35762695 604.87042969 -684.92822266 605.83398438 C-693.7785246 621.14063267 -700.42832208 637.50995615 -707.1875 653.8125 C-707.97555411 655.70522695 -708.76396424 657.59780571 -709.55273438 659.49023438 C-711.39139217 663.90369842 -713.22641818 668.31865738 -715.05950928 672.73443604 C-720.42301559 685.65467686 -720.42301559 685.65467686 -722.54296875 690.59765625 C-723.73794802 693.38807702 -724.90002008 696.18735893 -726.05078125 698.99609375 C-726.80448459 700.80998016 -727.55839491 702.62378058 -728.3125 704.4375 C-728.67794922 705.34048828 -729.04339844 706.24347656 -729.41992188 707.17382812 C-732.59369505 714.74374307 -736.35530569 721.89662277 -743.5 726.375 C-744.2115625 726.83648438 -744.923125 727.29796875 -745.65625 727.7734375 C-750.57343985 730.34676685 -754.94918643 731.25049626 -760.47616577 731.26069641 C-761.76021805 731.26778122 -763.04427032 731.27486603 -764.36723328 731.28216553 C-765.7778629 731.27987202 -767.18849219 731.27736236 -768.59912109 731.2746582 C-770.09439854 731.27900854 -771.58967376 731.28419276 -773.08494568 731.29014587 C-777.13667642 731.30351321 -781.18831375 731.30411702 -785.24006224 731.30158257 C-788.62711923 731.30051122 -792.01415746 731.30540048 -795.40121043 731.310188 C-803.39476661 731.32127557 -811.38827579 731.32172495 -819.38183594 731.31567383 C-827.61727242 731.30963527 -835.85253801 731.32194375 -844.08794534 731.3432439 C-851.16839858 731.36088082 -858.24879753 731.36685792 -865.32927191 731.36360615 C-869.55375354 731.36179633 -873.77811326 731.36439932 -878.00257492 731.37832069 C-881.97696579 731.39092834 -885.95109102 731.38892735 -889.92547798 731.37590981 C-891.37987547 731.37355077 -892.83429183 731.37625452 -894.28866768 731.38453293 C-910.73892218 731.47138 -910.73892218 731.47138 -917.0234375 726.3515625 C-921.00396188 721.26661517 -923.55839236 717.20248967 -923.38305664 710.47290039 C-921.84224485 700.52587514 -916.66683732 690.62728838 -912.625 681.5 C-911.48734378 678.90779388 -910.35462639 676.3134435 -909.22265625 673.71875 C-908.75106331 672.63871704 -908.75106331 672.63871704 -908.26994324 671.53686523 C-903.12362084 659.7245188 -898.1050444 647.85689579 -893.0625 636 C-892.05747159 633.63736249 -891.05242633 631.27473215 -890.04736328 628.91210938 C-888.62254223 625.562745 -887.19774129 622.21337215 -885.77319336 618.8638916 C-882.52866627 611.23690271 -879.27342669 603.61463253 -876 596 C-877.8253125 596.12375 -877.8253125 596.12375 -879.6875 596.25 C-882.97607044 596.25 -883.94125938 596.03575516 -886.875 594.25 C-889.99497149 590.94650078 -890.84963004 589.1599968 -891.4375 584.625 C-890.85694294 579.8146701 -889.38607407 578.38607407 -886 575 C-883.67525521 573.83762761 -881.84825441 573.65452294 -879.265625 573.3515625 C-878.29753906 573.23296875 -877.32945312 573.114375 -876.33203125 572.9921875 C-874.32447926 572.75301147 -872.31667671 572.51592636 -870.30859375 572.28125 C-864.95980073 571.62228992 -859.73769927 570.76603466 -854.47900391 569.57983398 C-847.35585096 568.03197339 -840.21787331 566.86669532 -833.0078125 565.80859375 C-831.06595515 565.51707277 -829.12409844 565.22554745 -827.18227959 564.93377018 C-823.83039788 564.4313448 -820.47766032 563.9346982 -817.125 563.4375 C-813.09250451 562.83905737 -809.06021389 562.23934892 -805.02877808 561.63380432 C-802.53398745 561.2594616 -800.03866812 560.88862007 -797.54275513 560.52183533 C-786.71274546 559.26160287 -786.71274546 559.26160287 -777 554.875 C-774.70690903 551.57868174 -774.37457324 549.84656062 -774.640625 545.9296875 C-775.29940212 542.39234078 -776.64587287 539.94007554 -779.61206055 537.88085938 C-783.03775323 536.61719521 -786.35651249 536.72773058 -789.95703125 536.78125 C-790.74656693 536.7874939 -791.5361026 536.79373779 -792.3495636 536.8001709 C-800.92499179 536.92321469 -809.45391957 537.58752656 -817.9984436 538.28366089 C-830.58302765 539.29611185 -843.18319906 540.30218984 -855.8125 540.4375 C-856.70477295 540.45941406 -857.5970459 540.48132813 -858.51635742 540.50390625 C-862.56667627 540.49094134 -864.5081852 540.31065344 -868.01171875 538.09765625 C-870.81189965 535.1434379 -871.25800494 533.24291849 -871.5 529.25 C-871.60828125 527.98929688 -871.60828125 527.98929688 -871.71875 526.703125 C-870.5678312 522.3746695 -867.79570512 520.22086309 -864 518 C-860.94722591 517.07377817 -857.9897333 516.93539271 -854.8125 516.8125 C-853.37910278 516.72053345 -853.37910278 516.72053345 -851.91674805 516.62670898 C-849.64700667 516.48273733 -847.37646536 516.35110486 -845.10546875 516.22851562 C-837.46833944 515.81464837 -829.83843874 515.27356935 -822.20767212 514.75762939 C-820.27315598 514.62724649 -818.33856435 514.49797902 -816.40390015 514.36981201 C-801.53056726 513.38393323 -786.75369669 512.03565735 -771.94482422 510.32324219 C-768.24396013 509.91701237 -764.53927967 509.59447954 -760.8293457 509.28393555 C-751.38239603 508.49210639 -741.95662099 507.5064451 -732.54458618 506.37496948 C-731.15233381 506.20980272 -729.75939745 506.05029235 -728.36581421 505.89675903 C-726.40735354 505.6793164 -724.45162121 505.43772095 -722.49609375 505.1953125 C-721.36357178 505.06141113 -720.2310498 504.92750977 -719.06420898 504.78955078 C-715.51139834 503.87410264 -713.64140119 502.51131973 -711 500 C-709.26234457 496.52468913 -709.40414648 492.7911999 -710 489 C-712.52968474 485.71824682 -714.07731331 484.30756223 -718 483 C-727.30434075 482.5156167 -736.58998851 483.31318429 -745.85546875 484.09375 C-747.25103046 484.20650811 -748.6466466 484.31859419 -750.04231262 484.43005371 C-755.89072669 484.8984578 -761.73803995 485.38005572 -767.58520508 485.86376953 C-796.15036386 488.21976987 -796.15036386 488.21976987 -806.67578125 488.40625 C-807.98071533 488.43009766 -809.28564941 488.45394531 -810.63012695 488.47851562 C-815.22972235 487.82538174 -818.54946644 485.91206697 -821.375 482.1875 C-822.30178233 478.94376185 -822.35340896 476.35738508 -822 473 C-819.71096971 469.44805644 -817.32825905 466.54582289 -813.04144287 465.54084778 C-811.922164 465.39264839 -811.922164 465.39264839 -810.78027344 465.24145508 C-809.92391296 465.12378281 -809.06755249 465.00611053 -808.1852417 464.88487244 C-807.25270569 464.76430984 -806.32016968 464.64374725 -805.359375 464.51953125 C-803.33722111 464.24346207 -801.31508652 463.96725153 -799.29296875 463.69091797 C-797.69267822 463.47650055 -797.69267822 463.47650055 -796.06005859 463.25775146 C-765.50990481 459.14830738 -735.22979904 453.86511209 -705.04492188 447.62255859 C-701.78833751 446.95672391 -698.52747865 446.31527868 -695.265625 445.67578125 C-676.78498877 442.01237667 -658.61030374 437.47199419 -640.40856934 432.63793945 C-637.93252136 431.98212745 -635.45523156 431.33121042 -632.97753906 430.68164062 C-614.76153576 425.90414833 -596.59140116 421.00883295 -578.5625 415.5625 C-577.88539978 415.3590799 -577.20829956 415.15565979 -576.51068115 414.94607544 C-569.59082928 412.85956009 -562.82907784 410.62305822 -556.15209961 407.85522461 C-553.15960748 406.66603574 -550.1110355 405.82178296 -547 405 C-541.9529663 403.60714979 -537.18972394 401.96138415 -532.3671875 399.9375 C-529.08731188 398.63853936 -525.73274567 397.68673676 -522.34765625 396.703125 C-515.6902449 394.70922476 -509.28853532 391.92274734 -502.84545898 389.33496094 C-495.62397303 386.43815119 -488.36247377 383.64669875 -481.08300781 380.89892578 C-472.42509708 377.61105815 -463.89289927 374.06814334 -455.375 370.4375 C-454.6606781 370.13353302 -453.9463562 369.82956604 -453.21038818 369.51638794 C-429.8630761 359.57558822 -406.78625623 349.17609753 -384 338 C-383.25314941 337.63487305 -382.50629883 337.26974609 -381.73681641 336.89355469 C-377.94300599 335.03478533 -374.16711577 333.14340706 -370.40332031 331.22460938 C-368.5707558 330.29082803 -366.7364514 329.36046043 -364.90136719 328.43164062 C-347.92823559 319.82810107 -331.31377942 310.81343733 -315 301 C-313.50267334 300.104021 -313.50267334 300.104021 -311.97509766 299.18994141 C-300.73599304 292.45727682 -289.58986166 285.62595984 -278.78027344 278.21972656 C-276.91227272 276.93989502 -275.03838511 275.66898935 -273.1640625 274.3984375 C-251.97297391 259.98483234 -231.37532189 244.79194564 -212 228 C-211.26652344 227.36707031 -210.53304687 226.73414063 -209.77734375 226.08203125 C-205.43255895 222.3073375 -201.15554284 218.4574411 -196.8828125 214.6015625 C-195.23476535 213.11430044 -193.58205297 211.63208716 -191.91577148 210.1652832 C-185.21267783 204.22348837 -178.84114685 197.99512836 -172.52172852 191.65209961 C-170.80792767 189.9329133 -169.08880918 188.21917417 -167.36914062 186.50585938 C-161.70006251 180.84056699 -156.16077755 175.13934881 -151 169 C-150.09946595 167.95529139 -149.19844774 166.91099987 -148.296875 165.8671875 C-133.18376538 148.11160165 -118.62015133 129.61776551 -106 110 C-104.66938529 107.99819025 -103.33669166 105.99775704 -102 104 C-102.85400391 103.87254395 -103.70800781 103.74508789 -104.58789062 103.61376953 C-108.01123512 102.99797903 -111.25415518 102.14920109 -114.59375 101.1796875 C-115.86065674 100.81262695 -117.12756348 100.44556641 -118.43286133 100.06738281 C-119.78864372 99.670159 -121.14435512 99.27269286 -122.5 98.875 C-123.53427628 98.57354065 -123.53427628 98.57354065 -124.58944702 98.26599121 C-134.25735108 95.44788246 -143.87445159 92.50111388 -153.45361328 89.39306641 C-159.92766252 87.30383139 -166.44093996 85.41948902 -173.01879883 83.68457031 C-177.80956828 82.40458059 -182.37771196 80.79927991 -187 79 C-184.18627551 76.74268584 -181.49583621 75.20172913 -178.17602539 73.80200195 C-176.73191032 73.18821434 -176.73191032 73.18821434 -175.25862122 72.56202698 C-174.21550278 72.12519089 -173.17238434 71.6883548 -172.09765625 71.23828125 C-171.00462692 70.77522079 -169.9115976 70.31216034 -168.78544617 69.83506775 C-165.21316364 68.32268685 -161.63781297 66.81770093 -158.0625 65.3125 C-155.59545338 64.26991182 -153.12919054 63.22547823 -150.66308594 62.18066406 C-149.74374236 61.7911856 -149.74374236 61.7911856 -148.80582619 61.39383888 C-147.56838676 60.86958057 -146.33095808 60.34529687 -145.09354019 59.8209877 C-143.23639248 59.03435623 -141.37895241 58.24841858 -139.52145386 57.46261597 C-129.24125327 53.11102129 -118.98924593 48.69693235 -108.75 44.25 C-96.88695426 39.10369823 -85.0031676 34.01208776 -73.0859375 28.9921875 C-67.39764851 26.59472763 -61.71756012 24.17836382 -56.0390625 21.7578125 C-54.25236547 20.99665063 -52.46566296 20.23550164 -50.67895508 19.47436523 C-48.03122033 18.34636864 -45.38369289 17.21790061 -42.73690796 16.087677 C-33.29425599 12.05589166 -23.8379403 8.08387993 -14.28588867 4.31762695 C-12.56823049 3.62885355 -10.85223777 2.93286219 -9.16738892 2.16732788 C-5.78064897 0.62957734 -3.8015919 0 0 0 Z " fill="#015BFC" transform="translate(1087,343)"/>
<path d="M0 0 C0.66 0 1.32 0 2 0 C4.4528377 5.28767472 6.87085666 10.57242967 9 16 C10.73982331 20.42672785 12.66243341 24.74871559 14.65625 29.06640625 C15.72795142 31.40607998 16.77991694 33.75176012 17.82177734 36.10473633 C19.92158292 40.83376757 22.05456606 45.54720296 24.1953125 50.2578125 C24.99751962 52.0255786 25.79959828 53.79340299 26.6015625 55.5612793 C27.01438477 56.47130707 27.42720703 57.38133484 27.85253906 58.31893921 C35.52921159 75.24771803 43.14809442 92.19341496 50.40234375 109.30859375 C52.71194899 114.69793013 55.15414351 120.02933511 57.5625 125.375 C63.1148677 137.71810329 68.57018758 150.10256365 74 162.5 C79.6710333 175.44577559 85.37843285 188.37264047 91.17675781 201.26196289 C95.39574954 210.64152108 99.57757134 220.0371547 103.75 229.4375 C111.8036806 247.57783386 119.9045836 265.69687594 128.01898193 283.81011963 C128.96799036 285.92854639 129.91687202 288.0470299 130.86572266 290.16552734 C132.57673701 293.98553601 134.28825885 297.80531695 136 301.625 C136.47912842 302.69419678 136.95825684 303.76339355 137.4519043 304.86499023 C143.11747791 317.50148407 148.79034018 330.13476408 154.51052856 342.74664307 C156.05903051 346.16159619 157.60449537 349.57791972 159.1496582 352.99438477 C159.93246412 354.72319757 160.71667063 356.4513768 161.50219727 358.17895508 C174.94210838 387.74786501 174.94210838 387.74786501 172.26953125 396.3515625 C169.96997941 402.11452098 167.56238157 405.30158526 161.85722256 408.02159882 C153.71460408 411.36300131 146.0005952 411.56898387 137.34594727 411.51757812 C135.79730576 411.52300959 134.24866943 411.53013796 132.70004272 411.53881836 C128.52427093 411.55693464 124.34889786 411.55003263 120.17311978 411.53730202 C115.78385492 411.52711144 111.39462217 411.53658457 107.00535583 411.54284668 C99.6359144 411.55010633 92.26663377 411.54058054 84.8972168 411.52148438 C76.4032341 411.49972693 67.90963571 411.50676553 59.41566235 411.52879 C52.09638439 411.54700182 44.77722144 411.54947394 37.45792812 411.53903532 C33.09811963 411.532831 28.73849113 411.53187951 24.37869453 411.54518127 C20.2769136 411.55682351 16.17562303 411.54856318 12.0738945 411.52560425 C10.57764305 411.52036112 9.0813496 411.52175455 7.58511543 411.53065491 C-4.53472891 411.59604609 -15.50775695 410.13830214 -25.00268555 401.99707031 C-33.5763508 393.42445306 -37.46663048 382.40269332 -41.875 371.375 C-42.98895014 368.62996402 -44.10759871 365.88687352 -45.22659302 363.14389038 C-45.99558987 361.25839618 -46.76321749 359.37234299 -47.5295105 357.48574829 C-51.18364762 348.50154973 -54.97385005 339.57779984 -58.78979492 330.66137695 C-64.17635876 318.07172302 -69.49859587 305.46209739 -74.63183594 292.76660156 C-79.07558782 281.78038571 -83.59801883 270.8271392 -88.125 259.875 C-88.5334314 258.88672211 -88.94186279 257.89844421 -89.3626709 256.88021851 C-95.1083008 242.97913205 -100.86364894 229.08207732 -106.625 215.1875 C-106.96821289 214.35964996 -107.31142578 213.53179993 -107.66503906 212.67886353 C-111.24970539 204.0328161 -114.8374122 195.3880535 -118.43423462 186.74705505 C-119.9646113 183.0698211 -121.4934521 179.3919495 -123.02215576 175.71401978 C-123.74083073 173.98614125 -124.46023645 172.25856643 -125.18048096 170.53134155 C-127.15042932 165.80704294 -129.10743503 161.07783246 -131.04260254 156.33917236 C-131.69800881 154.73784345 -132.35729858 153.13810004 -133.01989746 151.53973389 C-134.0230504 149.11336891 -135.00943055 146.68077995 -135.9921875 144.24609375 C-136.29577179 143.5196315 -136.59935608 142.79316925 -136.91213989 142.04469299 C-138.96390804 136.89040588 -139.97330147 132.19177634 -138.30078125 126.70703125 C-137.81158203 125.76923828 -137.81158203 125.76923828 -137.3125 124.8125 C-136.99925781 124.17957031 -136.68601562 123.54664063 -136.36328125 122.89453125 C-132.64899107 117.73283859 -126.51227207 114.76867726 -121.1875 111.5 C-112.05799338 105.81148695 -103.47995414 99.60683633 -95 93 C-93.78399058 92.06232306 -92.56784696 91.12482014 -91.3515625 90.1875 C-80.08863328 81.46378205 -69.2683252 72.29298069 -58.82421875 62.60546875 C-56.28643906 60.26425291 -53.71361639 57.97207009 -51.125 55.6875 C-42.57453163 48.00727316 -34.24293194 39.88171091 -26.8203125 31.09765625 C-24.87139596 28.85180178 -22.84155198 26.69094502 -20.80273438 24.52685547 C-14.87755065 18.22342888 -9.44223754 11.66506303 -4.1796875 4.80078125 C-2 2 -2 2 0 0 Z " fill="#014FFD" transform="translate(930,664)"/>
<path d="M0 0 C8.80161367 -0.00480785 17.60307816 -0.02264042 26.40464681 -0.0510757 C33.34436712 -0.07269569 40.28404496 -0.08277785 47.22379857 -0.08411622 C51.31790121 -0.08515443 55.41185772 -0.09086231 59.50592363 -0.10893583 C63.31111056 -0.12544578 67.11604062 -0.12755831 70.9212507 -0.11879683 C72.30551921 -0.11803088 73.68980205 -0.12231027 75.07403505 -0.13225508 C89.67428887 -0.23098804 99.26482237 3.00313444 110.46524179 12.2388196 C121.19865794 22.9547261 126.18402611 38.05016147 131.86645639 51.80400515 C133.8556901 56.61710073 135.85992703 61.42394159 137.86367929 66.2310071 C138.45952074 67.66141329 138.45952074 67.66141329 139.06739938 69.12071657 C142.36365268 77.02243458 145.73266087 84.89002007 149.15274179 92.7388196 C149.91626962 94.49162233 149.91626962 94.49162233 150.69522226 96.27983522 C151.73437882 98.6649563 152.77360474 101.05004716 153.81289804 103.43510866 C161.44530268 120.98249549 168.97446682 138.57783928 176.34024179 156.2388196 C176.7510499 157.22350222 177.161858 158.20818483 177.58511484 159.22270632 C180.27778948 165.7092582 182.49651352 171.10289338 181.46524179 178.2388196 C179.29961046 183.30814494 176.47688314 185.4879599 171.39640456 187.59880336 C168.37605275 188.59979315 165.56062183 188.61506298 162.3921293 188.61634302 C161.71248847 188.62070334 161.03284763 188.62506367 160.33261162 188.62955612 C158.06252919 188.64047654 155.79305872 188.63010585 153.52298105 188.61977053 C151.87613001 188.62322837 150.22928129 188.62799378 148.5824374 188.63395226 C144.0624761 188.64647454 139.54270485 188.64028627 135.02274287 188.6309936 C130.14605441 188.6242085 125.26939872 188.63468167 120.39271677 188.64293337 C110.84144999 188.65627863 101.2902539 188.65338942 91.73898435 188.64469545 C83.97700033 188.63792244 76.21503614 188.63700052 68.45305002 188.6402669 C67.34865037 188.64072659 66.24425073 188.64118629 65.10638443 188.64165992 C62.86287228 188.64261909 60.61936013 188.64359173 58.375848 188.6445777 C37.33459352 188.65313392 16.29337825 188.64329381 -4.74786979 188.6271766 C-22.8052702 188.61377321 -40.86261275 188.61610124 -58.92001212 188.62993288 C-79.88557843 188.64598459 -100.85111038 188.65230992 -121.81668198 188.64309609 C-124.05197679 188.64214043 -126.28727161 188.64119732 -128.52256644 188.6402669 C-130.17231158 188.63957266 -130.17231158 188.63957266 -131.85538492 188.63886439 C-139.60874214 188.63627328 -147.36207758 188.64064812 -155.11543143 188.64770555 C-164.56317795 188.65611619 -174.0108497 188.65384957 -183.45858765 188.63786332 C-188.27967973 188.62997476 -193.10064709 188.62689901 -197.92173827 188.63681078 C-202.33455449 188.64574601 -206.74713029 188.64084414 -211.15992469 188.62487812 C-212.75673146 188.62152536 -214.35355851 188.62323552 -215.95035225 188.63050549 C-218.12107202 188.63963078 -220.2909688 188.63026928 -222.46164572 188.61634302 C-223.66726047 188.61585596 -224.87287521 188.61536891 -226.11502373 188.61486709 C-232.66520777 187.89458302 -237.22318438 185.3112594 -241.53475821 180.2388196 C-244.42216395 171.57660237 -241.87978446 164.39000386 -238.22225821 156.4263196 C-237.20755869 154.12367319 -236.19468432 151.82022203 -235.18319571 149.51616335 C-234.76270705 148.56829454 -234.76270705 148.56829454 -234.33372366 147.60127687 C-230.63094325 139.24730441 -227.11140431 130.81553033 -223.56915152 122.39259768 C-221.92642897 118.48873661 -220.27878581 114.58696061 -218.63111746 110.68518496 C-214.13296826 100.03311763 -209.64110776 89.37840015 -205.15344107 78.72191286 C-204.16831778 76.38413217 -203.18164738 74.04700958 -202.19467032 71.71001101 C-199.35476975 64.98003619 -196.52779438 58.24600485 -193.76672232 51.48323488 C-192.59566817 48.61575951 -191.41694602 45.75146138 -190.23806632 42.88719606 C-189.43995226 40.93757709 -188.654404 38.9832279 -187.86923087 37.02837038 C-182.03749241 22.86724043 -173.71049564 13.01269869 -159.61678946 6.4888196 C-152.08820939 3.4354031 -144.83588327 2.1062797 -136.73568594 1.69878054 C-135.96073247 1.65824934 -135.185779 1.61771814 -134.3873421 1.57595873 C-123.24713617 1.03373656 -112.09567228 0.8704511 -100.94491446 0.6919446 C-99.07459398 0.66090513 -99.07459398 0.66090513 -97.16648924 0.62923861 C-64.77966349 0.10329063 -32.3905361 0.01735761 0 0 Z " fill="#18191D" transform="translate(656.5347582101822,884.7611804008484)"/>
<path d="M0 0 C0.91330078 -0.03287109 1.82660156 -0.06574219 2.76757812 -0.09960938 C7.20996951 -0.13509689 10.22745119 -0.01802907 13.76171875 2.83984375 C16.62628001 5.9073691 17.12331324 6.58702543 17.4375 10.75 C17.16723382 14.73642615 16.72462014 16.39295584 14.1875 19.4375 C9.96954932 21.89196846 6.36956855 22.95250635 1.54296875 23.53125 C0.90078903 23.60887573 0.25860931 23.68650146 -0.4030304 23.76647949 C-9.07658344 24.76788547 -17.79143371 25.33956439 -26.5 25.9375 C-28.32082454 26.06517266 -30.1416251 26.19318784 -31.96240234 26.3215332 C-34.69246051 26.5138389 -37.42254189 26.70571939 -40.152771 26.89558411 C-45.40504818 27.26188503 -50.65409934 27.65406529 -55.90234375 28.07421875 C-66.84538002 28.94250238 -77.77118002 29.64958623 -88.75 29.8125 C-90.1723999 29.85153442 -90.1723999 29.85153442 -91.62353516 29.89135742 C-95.89327694 29.90274864 -98.17805915 29.83028758 -101.87890625 27.5390625 C-104.61187279 24.56868675 -105.07221663 22.65217563 -105.3125 18.6875 C-105.3846875 17.84703125 -105.456875 17.0065625 -105.53125 16.140625 C-104.3803312 11.8121695 -101.60820512 9.65836309 -97.8125 7.4375 C-94.75980114 6.511301 -91.80217285 6.3726981 -88.625 6.25 C-87.67592773 6.18941406 -86.72685547 6.12882813 -85.74902344 6.06640625 C-83.48585949 5.92336824 -81.22191104 5.79248394 -78.95751953 5.67041016 C-71.12335566 5.24351382 -63.29755564 4.67024813 -55.4703064 4.13388062 C-52.63526208 3.94241403 -49.79981486 3.75880605 -46.96411133 3.57739258 C-38.18357486 3.00711282 -29.43777065 2.3397189 -20.69140625 1.37109375 C-13.788615 0.60961365 -6.95122586 0.04672221 0 0 Z " fill="#1B1C20" transform="translate(320.8125,853.5625)"/>
<path d="M0 0 C2.70056428 -0.09371647 5.39987341 -0.15475009 8.1015625 -0.20507812 C8.93864746 -0.23480713 9.77573242 -0.26453613 10.63818359 -0.29516602 C14.65020494 -0.33405012 16.68963214 -0.22655735 20.171875 1.93945312 C22.88593271 4.80314519 24.15192162 6.44809407 24.6015625 10.41992188 C24.15829307 14.77873792 23.01992487 16.77090571 20.2265625 20.10742188 C17.12581327 22.04806682 14.44294397 22.45909035 10.82421875 22.74023438 C9.77468018 22.82450684 8.7251416 22.9087793 7.64379883 22.99560547 C6.53673584 23.07375488 5.42967285 23.1519043 4.2890625 23.23242188 C2.59849731 23.35544678 2.59849731 23.35544678 0.8737793 23.48095703 C-2.34119353 23.70517649 -5.55664359 23.91125018 -8.7734375 24.10742188 C-9.54751953 24.15705078 -10.32160156 24.20667969 -11.11914062 24.2578125 C-16.47637237 24.56921809 -20.48766076 24.70597311 -25.3984375 22.41992188 C-30.57987782 17.37483525 -30.57987782 17.37483525 -30.9375 13.18554688 C-30.78619924 10.08970054 -30.46477209 7.92536717 -28.4296875 5.51757812 C-20.56392602 -1.13361725 -9.81578063 0.38018869 0 0 Z " fill="#0878FA" transform="translate(219.7734375,811.892578125)"/>
<path d="M0 0 C1.40804472 -0.01664587 2.81600206 -0.04404859 4.22363281 -0.08203125 C17.45644425 -0.43560312 17.45644425 -0.43560312 21.37988281 2.74853516 C24.66084744 6.81010103 24.8360982 9.11896755 24.48144531 14.35009766 C22.79016848 18.0709067 20.91894614 20.18438909 17.48144531 22.35009766 C14.98876953 22.84643555 14.98876953 22.84643555 12.16113281 23.01025391 C11.09991211 23.0735791 10.03869141 23.1369043 8.9453125 23.20214844 C7.80223633 23.25097168 6.65916016 23.29979492 5.48144531 23.35009766 C4.29454102 23.40536621 3.10763672 23.46063477 1.88476562 23.51757812 C-1.87530039 23.66067255 -5.63125441 23.73158805 -9.39355469 23.78759766 C-10.67230469 23.83335937 -11.95105469 23.87912109 -13.26855469 23.92626953 C-23.66356683 24.05105308 -23.66356683 24.05105308 -27.36230469 20.60791016 C-29.94820187 16.7009568 -30.29785533 14.96984963 -29.97949219 10.46728516 C-29.11955055 6.51738376 -26.96750995 4.3850657 -23.76855469 2.10009766 C-16.25118781 -0.4056913 -7.83848036 0.06779424 0 0 Z " fill="#202126" transform="translate(169.5185546875,863.64990234375)"/>
<path d="M0 0 C0.99 0 1.98 0 3 0 C2.44828634 3.8447546 0.78537669 5.50873547 -2 8.125 C-4.89285588 10.77060724 -4.89285588 10.77060724 -7 14 C-7.66 14 -8.32 14 -9 14 C-9.2475 14.556875 -9.495 15.11375 -9.75 15.6875 C-11.22924818 18.42410913 -12.93467439 20.67650869 -15 23 C-15.66 23 -16.32 23 -17 23 C-17.27021973 23.59619141 -17.54043945 24.19238281 -17.81884766 24.80664062 C-18.99064816 26.98263396 -20.14253916 28.37400414 -21.8984375 30.09375 C-22.46046875 30.64933594 -23.0225 31.20492187 -23.6015625 31.77734375 C-24.18679688 32.34582031 -24.77203125 32.91429687 -25.375 33.5 C-25.9525 34.06847656 -26.53 34.63695312 -27.125 35.22265625 C-28.24250873 36.32230525 -29.36189598 37.42004939 -30.48339844 38.515625 C-32.33664212 40.32948875 -34.17086428 42.16185376 -36 44 C-36.99 43.67 -37.98 43.34 -39 43 C-38.46109131 42.46632813 -37.92218262 41.93265625 -37.36694336 41.3828125 C-34.88773764 38.92460574 -32.41260401 36.46233634 -29.9375 34 C-29.08994141 33.16082031 -28.24238281 32.32164062 -27.36914062 31.45703125 C-22.36330424 26.47052242 -17.56847877 21.38926111 -13 16 C-12.49251221 15.40880371 -11.98502441 14.81760742 -11.4621582 14.20849609 C-10.03132741 12.5397829 -8.60827584 10.86477698 -7.1875 9.1875 C-6.71119141 8.62869141 -6.23488281 8.06988281 -5.74414062 7.49414062 C-3.68135309 5.05999331 -1.7722152 2.65832279 0 0 Z " fill="#1559FA" transform="translate(949,496)"/>
<path d="M0 0 C0.66 0.33 1.32 0.66 2 1 C-0.50040308 3.50040308 -2.33358691 3.78364454 -5.75 4.625 C-6.77609375 4.88539063 -7.8021875 5.14578125 -8.859375 5.4140625 C-11.98495856 5.99719376 -14.82889349 6.10443764 -18 6 C-14.74457445 3.12201509 -12.14442303 2.45194906 -7.875 1.875 C-3.79828078 1.38616719 -3.79828078 1.38616719 0 0 Z M-18 6 C-18 6.33 -18 6.66 -18 7 C-23.95703125 8.7578125 -23.95703125 8.7578125 -26 9 C-26.99 8.34 -27.98 7.68 -29 7 C-25.32589215 5.82428549 -21.83070817 5.92633254 -18 6 Z " fill="#2784FC" transform="translate(307,900)"/>
<path d="M0 0 C1.1171875 1.77734375 1.1171875 1.77734375 2 4 C1.3203125 5.75390625 1.3203125 5.75390625 0.125 7.5625 C-2.38253598 12.00083869 -2.26586636 15.67625991 -1.9453125 20.6796875 C-2 23 -2 23 -4 25 C-6.99498025 16.01505926 -3.28996457 8.3659099 0 0 Z " fill="#1378FD" transform="translate(169,1037)"/>
<path d="M0 0 C0.33 0.99 0.66 1.98 1 3 C-0.328125 4.97265625 -0.328125 4.97265625 -2.25 7.0625 C-2.87390625 7.75472656 -3.4978125 8.44695313 -4.140625 9.16015625 C-6 11 -6 11 -9 13 C-9.99 12.67 -10.98 12.34 -12 12 C-8.04 8.04 -4.08 4.08 0 0 Z " fill="#175EFD" transform="translate(922,527)"/>
<path d="M0 0 C0.66 0.33 1.32 0.66 2 1 C-0.5638197 3.94528769 -3.47895744 5.48866559 -6.9375 7.25 C-8.49791016 8.06210937 -8.49791016 8.06210937 -10.08984375 8.890625 C-13.20486771 10.07809722 -13.96759223 9.94958707 -17 9 C-14.21526125 7.46621464 -11.42121662 5.9502442 -8.625 4.4375 C-7.8309375 3.99986328 -7.036875 3.56222656 -6.21875 3.11132812 C-5.45820312 2.70205078 -4.69765625 2.29277344 -3.9140625 1.87109375 C-2.8614624 1.29766235 -2.8614624 1.29766235 -1.78759766 0.71264648 C-1.19769043 0.47747314 -0.6077832 0.2422998 0 0 Z " fill="#1F65FB" transform="translate(736,664)"/>
<path d="M0 0 C-6 3 -6 3 -10 3 C-10.66 3.66 -11.32 4.32 -12 5 C-12.66 4.67 -13.32 4.34 -14 4 C-16.204364 3.77049681 -18.41392173 3.58924067 -20.625 3.4375 C-21.81351562 3.35371094 -23.00203125 3.26992188 -24.2265625 3.18359375 C-25.59941406 3.09271484 -25.59941406 3.09271484 -27 3 C-27 2.67 -27 2.34 -27 2 C-23.43784377 1.66292419 -19.87522551 1.33100024 -16.3125 1 C-15.30509766 0.90460937 -14.29769531 0.80921875 -13.25976562 0.7109375 C-12.28330078 0.62070312 -11.30683594 0.53046875 -10.30078125 0.4375 C-9.40528564 0.35371094 -8.50979004 0.26992188 -7.5871582 0.18359375 C-5.04810405 0.00341363 -2.54445189 -0.03208135 0 0 Z " fill="#457ED1" transform="translate(345,851)"/>
<path d="M0 0 C0.66 0.33 1.32 0.66 2 1 C-2.53669968 4.01679014 -6.68972746 6.53967505 -12 8 C-12.66 7.34 -13.32 6.68 -14 6 C-11.71220962 4.96959833 -9.42048864 3.95047982 -7.125 2.9375 C-6.47402344 2.64294922 -5.82304688 2.34839844 -5.15234375 2.04492188 C-3.45989459 1.30338487 -1.73131425 0.64560999 0 0 Z " fill="#2C6FFB" transform="translate(663,700)"/>
<path d="M0 0 C2.1875 1.875 2.1875 1.875 4 4 C4 4.66 4 5.32 4 6 C2.35232753 5.71890887 0.70686855 5.42481474 -0.9375 5.125 C-1.85402344 4.96257812 -2.77054688 4.80015625 -3.71484375 4.6328125 C-4.84599609 4.31957031 -4.84599609 4.31957031 -6 4 C-6.33 3.34 -6.66 2.68 -7 2 C-4.35261084 0.5393715 -3.10551666 0 0 0 Z " fill="#1D65FA" transform="translate(907,419)"/>
<path d="M0 0 C0.66 0.33 1.32 0.66 2 1 C0.92492371 2.29854721 -0.16043736 3.58858361 -1.25 4.875 C-1.85328125 5.59429688 -2.4565625 6.31359375 -3.078125 7.0546875 C-4.97087634 8.97052118 -6.53657727 9.96449045 -9 11 C-7.59155282 7.78475695 -5.89655214 5.67816132 -3.375 3.25 C-2.74335938 2.63640625 -2.11171875 2.0228125 -1.4609375 1.390625 C-0.73777344 0.70226562 -0.73777344 0.70226562 0 0 Z " fill="#2B2C31" transform="translate(485,898)"/>
<path d="M0 0 C1.1875 1.625 1.1875 1.625 2 4 C0.625 7.25 0.625 7.25 -1 10 C-1.66 10 -2.32 10 -3 10 C-3.12375 10.804375 -3.2475 11.60875 -3.375 12.4375 C-3.58125 13.283125 -3.7875 14.12875 -4 15 C-4.99 15.495 -4.99 15.495 -6 16 C-4.25192871 10.53262809 -2.34205919 5.24175152 0 0 Z " fill="#2A97FB" transform="translate(479,294)"/>
<path d="M0 0 C0.66 0.66 1.32 1.32 2 2 C0.73608512 3.00873016 -0.53640883 4.00671822 -1.8125 5 C-2.87404297 5.8353125 -2.87404297 5.8353125 -3.95703125 6.6875 C-6 8 -6 8 -9 8 C-9.33 7.34 -9.66 6.68 -10 6 C-6.7 4.02 -3.4 2.04 0 0 Z " fill="#1360F9" transform="translate(813,773)"/>
<path d="M0 0 C-1.04874998 2.62187494 -1.64931313 3.79371361 -4.125 5.25 C-4.74375 5.4975 -5.3625 5.745 -6 6 C-6 6.66 -6 7.32 -6 8 C-6.99 8.33 -7.98 8.66 -9 9 C-9 6 -9 6 -7.5390625 4.39453125 C-6.59160156 3.61142578 -6.59160156 3.61142578 -5.625 2.8125 C-4.68527344 2.01779297 -4.68527344 2.01779297 -3.7265625 1.20703125 C-2 0 -2 0 0 0 Z " fill="#1762FB" transform="translate(858,740)"/>
<path d="M0 0 C0.66 0.66 1.32 1.32 2 2 C-1.61328125 6.6875 -1.61328125 6.6875 -3 8 C-3.99 8 -4.98 8 -6 8 C-4.55746343 4.63408134 -2.66735273 2.48952921 0 0 Z " fill="#EAF2FD" transform="translate(943,500)"/>
<path d="M0 0 C1.25 1.5625 1.25 1.5625 2 4 C0.93237266 6.57001015 -0.46544943 8.6530403 -2 11 C-2.66 11 -3.32 11 -4 11 C-2.7874262 7.27566618 -1.49140021 3.62197194 0 0 Z " fill="#1F91FB" transform="translate(370,546)"/>
<path d="M0 0 C1.1171875 1.734375 1.1171875 1.734375 2 4 C1.3203125 6.140625 1.3203125 6.140625 0.125 8.25 C-0.26429688 8.95640625 -0.65359375 9.6628125 -1.0546875 10.390625 C-1.36664063 10.92171875 -1.67859375 11.4528125 -2 12 C-2.66 12 -3.32 12 -4 12 C-2.66666667 8 -1.33333333 4 0 0 Z " fill="#1D7FFB" transform="translate(169,1037)"/>
<path d="M0 0 C0.99 0.33 1.98 0.66 3 1 C2.67 3.64 2.34 6.28 2 9 C1.34 8.67 0.68 8.34 0 8 C0 5.36 0 2.72 0 0 Z " fill="#1E78FD" transform="translate(313,887)"/>
<path d="M0 0 C-0.33 0.99 -0.66 1.98 -1 3 C-7.0546875 3.9765625 -7.0546875 3.9765625 -9 4 C-9.66 3.34 -10.32 2.68 -11 2 C-3.375 0 -3.375 0 0 0 Z " fill="#1F76FC" transform="translate(441,778)"/>
<path d="M0 0 C0.66 0.33 1.32 0.66 2 1 C-0.31 3.64 -2.62 6.28 -5 9 C-5.66 8.34 -6.32 7.68 -7 7 C-4.69 4.69 -2.38 2.38 0 0 Z " fill="#1B5FF9" transform="translate(894,554)"/>
<path d="M0 0 C-1 1 -1 1 -4.3125 1.4375 C-7.44101199 1.91473064 -9.34101141 2.40460685 -12 4 C-12.33 3.34 -12.66 2.68 -13 2 C-8.7920942 -0.80527053 -4.85771358 -1.68151624 0 0 Z " fill="#1576FB" transform="translate(282,809)"/>
<path d="M0 0 C0.33 0 0.66 0 1 0 C0.50769231 6.4 0.50769231 6.4 -2.0625 9.4375 C-2.701875 9.953125 -3.34125 10.46875 -4 11 C-3.52269162 9.5410574 -3.04308958 8.08286504 -2.5625 6.625 C-2.29566406 5.81289063 -2.02882813 5.00078125 -1.75390625 4.1640625 C-1 2 -1 2 0 0 Z " fill="#2996FC" transform="translate(484,283)"/>
<path d="M0 0 C0.66 0.99 1.32 1.98 2 3 C0.625 6.6875 0.625 6.6875 -1 10 C-1.66 9.67 -2.32 9.34 -3 9 C-2.01 6.03 -1.02 3.06 0 0 Z " fill="#1D81FB" transform="translate(178,1016)"/>
<path d="M0 0 C0.8353125 0.37125 0.8353125 0.37125 1.6875 0.75 C0.57375 1.3996875 0.57375 1.3996875 -0.5625 2.0625 C-2.93083926 3.51579909 -5.12174065 5.04607606 -7.3125 6.75 C-7.3125 5.76 -7.3125 4.77 -7.3125 3.75 C-3.21493902 -0.34756098 -3.21493902 -0.34756098 0 0 Z " fill="#323438" transform="translate(225.3125,861.25)"/>
<path d="M0 0 C-1.36983503 3.16115776 -1.9890638 3.9927092 -5 6 C-7.1875 5.625 -7.1875 5.625 -9 5 C-7.87926138 4.16094435 -6.75325453 3.32892169 -5.625 2.5 C-4.99851562 2.0359375 -4.37203125 1.571875 -3.7265625 1.09375 C-2 0 -2 0 0 0 Z " fill="#125CFA" transform="translate(823,767)"/>
<path d="M0 0 C-0.33 0.66 -0.66 1.32 -1 2 C-2.65 2 -4.3 2 -6 2 C-6.33 2.99 -6.66 3.98 -7 5 C-7.99 4.67 -8.98 4.34 -10 4 C-6.58908673 0.88145073 -4.68377325 -0.53528837 0 0 Z " fill="#2084FD" transform="translate(208,917)"/>
<path d="M0 0 C0.95465783 2.16967689 1.14401212 3.56328793 0.3984375 5.82421875 C-0.35870385 7.5684743 -1.17609198 9.28627131 -2 11 C-2.33 11 -2.66 11 -3 11 C-3.36923077 4.6 -3.36923077 4.6 -1.5 1.5625 C-1.005 1.046875 -0.51 0.53125 0 0 Z " fill="#2E82FA" transform="translate(268,812)"/>
<path d="M0 0 C1.32 0.66 2.64 1.32 4 2 C2.02 3.32 0.04 4.64 -2 6 C-2.33 5.01 -2.66 4.02 -3 3 C-2.01 2.01 -1.02 1.02 0 0 Z " fill="#1B65F8" transform="translate(798,782)"/>
<path d="M0 0 C2.8203125 -0.29296875 2.8203125 -0.29296875 6.125 -0.1875 C7.76855469 -0.14689453 7.76855469 -0.14689453 9.4453125 -0.10546875 C10.28835938 -0.07066406 11.13140625 -0.03585937 12 0 C8.88089144 1.79275866 6.32317572 2.34290718 2.75 2.625 C1.85796875 2.69976563 0.9659375 2.77453125 0.046875 2.8515625 C-0.62859375 2.90054688 -1.3040625 2.94953125 -2 3 C-1.34 2.01 -0.68 1.02 0 0 Z " fill="#44A2FB" transform="translate(346,769)"/>
<path d="M0 0 C0.33 0 0.66 0 1 0 C1 2.31 1 4.62 1 7 C-0.98 7.99 -0.98 7.99 -3 9 C-2.01 6.03 -1.02 3.06 0 0 Z " fill="#2C8FFA" transform="translate(279,756)"/>
<path d="M0 0 C-0.33 0.99 -0.66 1.98 -1 3 C-3.875 3.625 -3.875 3.625 -7 4 C-7.66 3.34 -8.32 2.68 -9 2 C-3.375 0 -3.375 0 0 0 Z " fill="#1A6DFC" transform="translate(528,753)"/>
<path d="M0 0 C-1.39332574 3.36720387 -2.9789286 4.9859524 -6 7 C-6 4 -6 4 -4.125 1.8125 C-2 0 -2 0 0 0 Z " fill="#1760FA" transform="translate(866,733)"/>
<path d="M0 0 C0.66 0.99 1.32 1.98 2 3 C0.625 6.6875 0.625 6.6875 -1 10 C-1.66 9.67 -2.32 9.34 -3 9 C-2.01 6.03 -1.02 3.06 0 0 Z " fill="#1C8EFA" transform="translate(377,530)"/>
<path d="M0 0 C0.66 1.32 1.32 2.64 2 4 C0.75 6.75 0.75 6.75 -1 9 C-1.66 9 -2.32 9 -3 9 C-2.01 6.03 -1.02 3.06 0 0 Z " fill="#2385FC" transform="translate(192,983)"/>
<path d="M0 0 C0.66 0 1.32 0 2 0 C1.75 2.375 1.75 2.375 1 5 C-1.0625 6.3125 -1.0625 6.3125 -3 7 C-1.125 1.125 -1.125 1.125 0 0 Z " fill="#2A92FB" transform="translate(333,633)"/>
<path d="M0 0 C0.66 0.33 1.32 0.66 2 1 C0.02 2.98 -1.96 4.96 -4 7 C-4.99 6.67 -5.98 6.34 -7 6 C-4.69 4.02 -2.38 2.04 0 0 Z " fill="#0D54FA" transform="translate(879,568)"/>
<path d="M0 0 C0.33 0.99 0.66 1.98 1 3 C-1.97 5.475 -1.97 5.475 -5 8 C-4.45773019 4.20411134 -2.79872437 2.52788007 0 0 Z " fill="#0950FA" transform="translate(928,521)"/>
<path d="M0 0 C-3.25 1.625 -3.25 1.625 -7 3 C-9.4375 2.1875 -9.4375 2.1875 -11 1 C-3.57142857 -1.42857143 -3.57142857 -1.42857143 0 0 Z " fill="#4F5054" transform="translate(511,889)"/>
<path d="M0 0 C-3.8503105 2.56687367 -5.58569763 1.83288724 -10 1 C-6.42181037 -1.33958553 -4.07775191 -0.9267618 0 0 Z " fill="#1F78FA" transform="translate(410,787)"/>
<path d="M0 0 C0.33 0.99 0.66 1.98 1 3 C-0.65 4.65 -2.3 6.3 -4 8 C-4.66 7.67 -5.32 7.34 -6 7 C-4.02 4.69 -2.04 2.38 0 0 Z " fill="#1B61FC" transform="translate(919,677)"/>
<path d="M0 0 C0.66 0 1.32 0 2 0 C1.67 1.98 1.34 3.96 1 6 C0.01 6.33 -0.98 6.66 -2 7 C-1.34 4.69 -0.68 2.38 0 0 Z " fill="#248FFB" transform="translate(338,620)"/>
<path d="M0 0 C0.66 0 1.32 0 2 0 C1.375 1.875 1.375 1.875 0 4 C-3.125 5.25 -3.125 5.25 -6 6 C-4 4 -2 2 0 0 Z " fill="#165BFC" transform="translate(854,588)"/>
<path d="M0 0 C0.99 0.33 1.98 0.66 3 1 C1.35 2.65 -0.3 4.3 -2 6 C-2.33 5.01 -2.66 4.02 -3 3 C-2.34 3 -1.68 3 -1 3 C-0.67 2.01 -0.34 1.02 0 0 Z " fill="#F0F6FE" transform="translate(913,532)"/>
<path d="M0 0 C0.99 0.66 1.98 1.32 3 2 C1.35 4.31 -0.3 6.62 -2 9 C-2.33 8.34 -2.66 7.68 -3 7 C-2.06421005 4.64018187 -1.06652192 2.30368736 0 0 Z " fill="#1B8CF9" transform="translate(438,389)"/>
</svg>
